<svg xmlns="http://www.w3.org/2000/svg" viewBox="0 0 182.4 186.5"><defs><style>.cls-1{fill:#fff;}</style></defs><title>anthonyrees-logo</title><g id="Layer_2" data-name="Layer 2"><g id="Layer_1-2" data-name="Layer 1"><path class="cls-1" d="M178.83,172.13a28.2,28.2,0,0,1-24.61,14.37h-1.53a28.14,28.14,0,0,1-26.16-17.58l-5.08-12.45a2,2,0,0,0-1.83-1.23h-58a2,2,0,0,0-1.84,1.25l-4.9,12.25A28.25,28.25,0,0,1,28.68,186.5h-.42a28.24,28.24,0,0,1-26-39.25L54.06,24.65a40.36,40.36,0,0,1,74.36,0L180,146.75A28.81,28.81,0,0,1,178.83,172.13Zm-48.6-70A2.17,2.17,0,0,0,130,99l-4.21-3.5a2.18,2.18,0,0,0-3,.21,42.78,42.78,0,0,1-63.16,0,2.18,2.18,0,0,0-3-.21L52.47,99a2.17,2.17,0,0,0-.22,3.13,52.59,52.59,0,0,0,78,0Z"/></g></g></svg>